<svg width="629" height="205" viewBox="0 0 629 205" fill="none" xmlns="http://www.w3.org/2000/svg">
<g clip-path="url(#clip0_69_501)">
<path d="M62.0563 54.3378H71.0816L75.0666 64.4301L79.5474 76.7315L83.9711 64.4301L87.9561 54.3378H96.7968L83.7868 85.5036H75.13L62.0563 54.3378ZM96.9924 69.9882C96.9924 79.958 103.28 86.3278 113.19 86.3278C118.296 86.3278 122.985 84.37 126.068 81.0271L121.677 76.2291C119.775 78.0645 116.631 79.1982 113.487 79.1982C108.738 79.1982 105.533 76.609 105 72.6998H127.607C128.909 61.1518 123.039 53.7066 112.415 53.7066C103.219 53.7066 96.9863 60.2694 96.9863 69.9882L96.9924 69.9882ZM105.115 67.1479C105.709 62.9809 108.495 60.5851 112.651 60.5851C117.042 60.5851 119.89 63.1097 120.187 67.1479H105.115ZM132.393 54.3378V85.5033H140.675V70.2974C140.675 64.6233 143.598 61.0953 148.143 61.0953C149.004 61.0953 149.804 61.2033 150.602 61.4564V53.8181C150.034 53.7437 149.461 53.7066 148.893 53.7066C145.53 53.7066 142.6 55.0269 140.236 58.2471L139.55 54.3378H132.393ZM155.177 85.5033H163.458V41.3408H155.177V85.5033ZM169.887 85.5033H178.168V41.3408H169.887V85.5033ZM182.749 69.9882C182.749 79.958 189.098 86.3278 199.106 86.3278C204.263 86.3278 208.998 84.37 212.111 81.0271L207.676 76.2291C205.755 78.0645 202.581 79.1982 199.406 79.1982C194.61 79.1982 191.374 76.609 190.835 72.6998H213.665C214.98 61.1518 209.052 53.7066 198.323 53.7066C189.037 53.7066 182.742 60.2694 182.742 69.9882L182.749 69.9882ZM190.952 67.1479C191.551 62.9809 194.365 60.5851 198.562 60.5851C202.997 60.5851 205.872 63.1097 206.171 67.1479H190.952ZM218.995 54.3378V85.5163H227.277V69.1767C227.277 64.3785 230.264 61.0359 234.745 61.0359C238.851 61.0359 241.406 63.8053 241.406 68.6035V85.5098H249.687V68.0947C249.687 59.2583 244.641 53.7065 236.798 53.7065C232.749 53.7065 229.139 55.2201 226.711 57.9316L226.152 54.3377L218.995 54.3378ZM254.262 69.9239C254.262 79.8295 260.802 86.1989 270.952 86.1989C275.681 86.1989 279.602 84.5567 283.091 81.1496L278.236 75.8491C276.367 77.8005 273.876 78.8761 271.136 78.8761C265.969 78.8761 262.48 75.2178 262.48 69.9175C262.48 64.6171 266.033 60.9586 271.136 60.9586C273.691 60.9586 276.119 61.9698 277.861 63.7345L282.653 58.4984C279.354 55.2845 275.369 53.6422 270.825 53.6422C260.922 53.6422 254.262 60.2051 254.262 69.9239ZM284.206 69.9882C284.206 79.958 290.494 86.3278 300.404 86.3278C305.51 86.3278 310.199 84.37 313.282 81.0271L308.891 76.2291C306.989 78.0645 303.845 79.1982 300.701 79.1982C295.952 79.1982 292.747 76.609 292.214 72.6998H314.821C316.123 61.1518 310.253 53.7066 299.628 53.7066C290.433 53.7066 284.2 60.2694 284.2 69.9882L284.206 69.9882ZM292.336 67.1479C292.929 62.9809 295.715 60.5851 299.871 60.5851C304.263 60.5851 307.11 63.1097 307.406 67.1479H292.336ZM49.3086 63.3546C44.8299 64.685 40.9956 66.8594 38.869 68.9166C37.1665 70.5635 34.6094 73.8492 36.0893 76.3844C36.6649 77.3705 38.2766 78.3106 40.3587 78.5697C46.8618 79.3786 55.0226 76.2138 61.4229 72.7749L62.0151 72.4455L65.3684 80.4394C62.5422 82.1827 59.3178 83.506 56.2073 84.6136C51.3335 86.3491 46.776 87.0037 42.6429 87C39.3043 86.997 36.503 86.5719 34.7167 85.9991C29.3078 84.3504 25.9711 79.0756 27.2868 73.395C28.4053 68.1914 34.1352 61.7713 39.3304 59.945H28.774V39H57.9324L60.9919 46.2934H36.7026V54.3378H54.4191L57.4595 61.5856C54.3444 61.913 51.3041 62.735 49.3086 63.3546Z" fill="#F41A43"/>
</g>
<rect x="419" width="209.667" height="205" fill="#97D6DF"/>
<path d="M441.904 83V32.6H450.832L476.032 66.44L475.96 52.112V32.6H485.896V83H476.896L451.696 49.232L451.84 64.208V83H441.904ZM520.99 84.08C505.006 84.08 494.638 73.712 494.638 57.8C494.638 42.32 505.654 31.52 521.638 31.52C529.054 31.52 535.462 34.04 540.646 39.44L534.454 45.632C531.142 42.32 526.318 40.376 521.566 40.376C511.342 40.376 504.574 47.288 504.574 57.8C504.574 68.384 511.126 75.224 521.062 75.224C526.03 75.224 529.99 73.928 533.23 71.192V62.12H519.334V53.84H542.014V75.656C536.614 81.272 529.558 84.08 520.99 84.08ZM581.344 83L574.648 73.136L569.248 64.712L563.92 73.064L557.224 83H545.128L562.624 57.512L545.992 32.6H557.728L563.92 41.96L569.176 50.456L574.648 41.96L580.84 32.6H592.648L575.8 57.368L593.44 83H581.344Z" fill="black"/>
<path d="M437.088 124.024V118.2H473.312V124.024H458.272V163H452.128V124.024H437.088ZM486.638 163.704C476.526 163.704 469.934 156.6 469.934 147.192C469.934 137.784 476.526 130.68 486.638 130.68C496.686 130.68 503.278 137.784 503.278 147.192C503.278 156.6 496.686 163.704 486.638 163.704ZM486.638 158.2C493.102 158.2 497.326 153.208 497.326 147.192C497.326 141.176 493.102 136.184 486.638 136.184C480.11 136.184 475.885 141.176 475.885 147.192C475.885 153.208 480.11 158.2 486.638 158.2ZM524.95 163.704C514.838 163.704 508.246 156.6 508.246 147.192C508.246 137.784 514.838 130.68 524.95 130.68C534.998 130.68 541.59 137.784 541.59 147.192C541.59 156.6 534.998 163.704 524.95 163.704ZM524.95 158.2C531.414 158.2 535.638 153.208 535.638 147.192C535.638 141.176 531.414 136.184 524.95 136.184C518.422 136.184 514.198 141.176 514.198 147.192C514.198 153.208 518.422 158.2 524.95 158.2ZM557.951 163.768C551.679 163.768 548.415 160.312 548.415 152.824V118.2H554.367V152.44C554.367 157.112 555.647 158.392 558.975 158.392C559.871 158.392 560.831 158.264 561.663 158.008L563.007 162.936C561.343 163.448 559.615 163.768 557.951 163.768ZM580.072 163.704C574.696 163.704 569.896 162.04 565.864 158.84L568.872 154.424C571.624 156.856 575.784 158.328 580.2 158.328C584.744 158.328 587.56 156.728 587.56 154.04C587.56 151.48 585.32 150.264 579.624 149.56C571.112 148.536 566.888 145.4 566.888 140.088C566.888 134.456 572.264 130.68 580.328 130.68C585.128 130.68 589.16 131.896 592.744 134.456L589.992 138.808C587.112 136.824 584.04 135.864 580.583 135.864C575.464 135.864 572.712 137.336 572.712 140.024C572.712 142.392 574.824 143.608 580.135 144.312C589.608 145.528 593.448 148.344 593.448 154.104C593.448 159.8 588.072 163.704 580.072 163.704Z" fill="black"/>
<defs>
<clipPath id="clip0_69_501">
<rect width="288" height="48" fill="white" transform="translate(27 39)"/>
</clipPath>
</defs>
</svg>
